<svg xmlns="http://www.w3.org/2000/svg" width="35.092" height="36" viewBox="0 0 35.092 36"><defs><style>.a{fill:#fff;}</style></defs><path class="a" d="M209.74,97.888a1.054,1.054,0,0,0,1.48.183,7.412,7.412,0,1,0-11.966-5.847V94.09a1.055,1.055,0,1,0,2.109,0V92.224a5.3,5.3,0,0,1,10.6,0c0,.085,0,.171-.007.255h-1.847a4.76,4.76,0,1,0,0,9.52,1.055,1.055,0,0,0,0-2.109,2.651,2.651,0,1,1,0-5.3h1.3a5.308,5.308,0,0,1-1.491,1.819,1.056,1.056,0,0,0-.183,1.48Zm0,0" transform="translate(-185.244 -78.849)"/><path class="a" d="M123.916,0a13.671,13.671,0,0,0-6.59,25.649,7.273,7.273,0,1,0,13.863,3.078,1.055,1.055,0,1,0-2.109,0,5.164,5.164,0,1,1-9.417-2.926,1.055,1.055,0,0,0-.439-1.563A11.562,11.562,0,1,1,135.477,13.67a1.055,1.055,0,1,0,2.109,0A13.685,13.685,0,0,0,123.916,0Zm0,0" transform="translate(-102.494)"/><path class="a" d="M63.678,311.643a4.766,4.766,0,0,1-4.76-4.76,1.055,1.055,0,0,0-2.109,0,6.878,6.878,0,0,0,6.87,6.87,1.055,1.055,0,0,0,0-2.109Zm0,0" transform="translate(-52.814 -284.325)"/><path class="a" d="M10.286,323.282a8.186,8.186,0,0,1-8.177-8.177,1.055,1.055,0,0,0-2.109,0,10.3,10.3,0,0,0,10.286,10.286,1.055,1.055,0,0,0,0-2.109Zm0,0" transform="translate(0 -291.969)"/></svg>