<svg xmlns="http://www.w3.org/2000/svg" width="17.419" height="30.74" viewBox="0 0 17.419 30.74"><defs><style>.a{fill:#80d96f;}</style></defs><g transform="translate(-110.933)"><g transform="translate(116.569 1.537)"><path class="a" d="M210.437,25.6h-5.123a.512.512,0,1,0,0,1.025h5.123a.512.512,0,0,0,0-1.025Z" transform="translate(-204.801 -25.6)"/></g><g transform="translate(124.766 1.537)"><path class="a" d="M342.359,25.6h-.512a.512.512,0,1,0,0,1.025h.512a.512.512,0,1,0,0-1.025Z" transform="translate(-341.334 -25.6)"/></g><g transform="translate(117.593 26.129)"><g transform="translate(0)"><path class="a" d="M224.553,435.2h-1.272a1.415,1.415,0,0,0-1.414,1.414v.247a1.415,1.415,0,0,0,1.413,1.413h1.272a1.415,1.415,0,0,0,1.413-1.413v-.247A1.415,1.415,0,0,0,224.553,435.2Zm.388,1.661a.389.389,0,0,1-.388.388h-1.272a.389.389,0,0,1-.389-.388v-.247a.389.389,0,0,1,.389-.389h1.272a.389.389,0,0,1,.389.389Z" transform="translate(-221.867 -435.2)"/></g></g><g transform="translate(110.933)"><g transform="translate(0)"><path class="a" d="M126.5,0H112.785a1.854,1.854,0,0,0-1.852,1.852V28.888a1.854,1.854,0,0,0,1.852,1.852H126.5a1.854,1.854,0,0,0,1.852-1.852V1.852A1.854,1.854,0,0,0,126.5,0Zm.827,28.888a.828.828,0,0,1-.827.827H112.785a.828.828,0,0,1-.827-.827V1.852a.828.828,0,0,1,.827-.827H126.5a.828.828,0,0,1,.827.827V28.888Z" transform="translate(-110.933)"/></g></g><g transform="translate(110.933 3.074)"><path class="a" d="M127.841,51.2H111.446a.513.513,0,0,0-.512.512V73.23a.513.513,0,0,0,.512.512h16.395a.513.513,0,0,0,.512-.512V51.712A.513.513,0,0,0,127.841,51.2Zm-.512,21.518h-15.37V52.225h15.37Z" transform="translate(-110.934 -51.2)"/></g></g></svg>