<svg xmlns="http://www.w3.org/2000/svg" width="20.482" height="23.304" viewBox="0 0 20.482 23.304"><defs><style>.a{fill:#80d96f;}</style></defs><g transform="translate(-31)"><path class="a" d="M47.386,4.865V0H35.1V4.865L31,8.669V23.3H51.482V8.669ZM37.779,15.56l-5.414,5.414V10.532Zm1,.93,2.461,2.285L43.7,16.489l5.45,5.45H33.331Zm5.923-.93,5.414-5.027V20.973ZM49.8,8.967,47.386,11.2V6.729Zm-3.776-7.6V12.473l-4.779,4.438-4.779-4.438V1.365ZM35.1,11.2l-2.41-2.238L35.1,6.729Z"/><path class="a" d="M181,72h6.827v1.365H181Z" transform="translate(-143.173 -68.723)"/><path class="a" d="M181,152h6.827v1.365H181Z" transform="translate(-143.173 -145.081)"/></g></svg>