<svg xmlns="http://www.w3.org/2000/svg" width="25.381" height="26.443" viewBox="0 0 25.381 26.443"><defs><style>.a{fill:#80d96f;}</style></defs><g transform="translate(-10.284)"><path class="a" d="M199.1,132.393a3.1,3.1,0,1,0-3.1-3.1A3.1,3.1,0,0,0,199.1,132.393Zm0-4.648a1.549,1.549,0,1,1-1.55,1.549A1.551,1.551,0,0,1,199.1,127.744Z" transform="translate(-176.124 -119.677)"/><path class="a" d="M32.832,17.818H27.647c2.421-2.311,4.624-4.576,4.624-8.522a9.08,9.08,0,0,0-9.3-9.3,9.081,9.081,0,0,0-9.3,9.3c0,3.946,2.2,6.211,4.624,8.522H13.117l-2.833,8.625H35.665ZM15.227,9.3a7.493,7.493,0,0,1,7.747-7.747A7.493,7.493,0,0,1,30.721,9.3c0,5.022-4.239,6.8-7.747,11.126A35.917,35.917,0,0,0,19.7,17.007c-2.5-2.376-4.469-4.252-4.469-7.71ZM13.052,22.983h5.585V21.433H13.56l.679-2.066h5.637v-.035a24.565,24.565,0,0,1,3.1,3.673,24.478,24.478,0,0,1,3.1-3.673v.035H31.71l.679,2.066H27.313v1.549H32.9l.628,1.911h-21.1Z"/></g></svg>