<svg xmlns="http://www.w3.org/2000/svg" width="31.082" height="31.082" viewBox="0 0 31.082 31.082"><defs><style>.a{fill:#80d96f;}</style></defs><path class="a" d="M15.541,0A15.541,15.541,0,1,0,31.082,15.541,15.559,15.559,0,0,0,15.541,0Zm0,29.3A13.763,13.763,0,1,1,29.3,15.541,13.779,13.779,0,0,1,15.541,29.3Z"/><path class="a" d="M119.976,71.952h-2.107a3.132,3.132,0,0,0-3.128,3.128v2.371h-1.963a.889.889,0,1,0,0,1.778h1.963v8.232a.889.889,0,0,0,1.778,0V79.229h3.038a.889.889,0,1,0,0-1.778h-3.038V75.08a1.352,1.352,0,0,1,1.35-1.35h2.107a.889.889,0,0,0,0-1.778Z" transform="translate(-100.835 -64.844)"/></svg>