<svg xmlns="http://www.w3.org/2000/svg" width="31.45" height="31.45" viewBox="0 0 31.45 31.45"><defs><style>.a{fill:#fff;}</style></defs><path class="a" d="M22.936,0H8.513A8.523,8.523,0,0,0,0,8.513V22.937A8.523,8.523,0,0,0,8.513,31.45H22.937a8.523,8.523,0,0,0,8.513-8.513V8.513A8.523,8.523,0,0,0,22.936,0Zm6.669,22.937a6.677,6.677,0,0,1-6.669,6.669H8.513a6.677,6.677,0,0,1-6.669-6.669V8.513A6.677,6.677,0,0,1,8.513,1.844H22.937a6.677,6.677,0,0,1,6.669,6.669Zm0,0"/><path class="a" d="M124.6,116a8.6,8.6,0,1,0,8.6,8.6A8.609,8.609,0,0,0,124.6,116Zm0,15.355a6.756,6.756,0,1,1,6.756-6.756A6.763,6.763,0,0,1,124.6,131.359Zm0,0" transform="translate(-108.878 -108.878)"/><path class="a" d="M360.518,66.285a2.541,2.541,0,1,0,2.541,2.541A2.544,2.544,0,0,0,360.518,66.285Zm0,3.238a.7.7,0,1,1,.7-.7A.7.7,0,0,1,360.518,69.523Zm0,0" transform="translate(-335.988 -62.214)"/></svg>