<svg xmlns="http://www.w3.org/2000/svg" width="49.284" height="47.418" viewBox="0 0 49.284 47.418"><defs><style>.a{fill:#fff;}</style></defs><g transform="translate(0 -9.555)"><g transform="translate(0 9.555)"><g transform="translate(0 0)"><path class="a" d="M48.665,36.765a.976.976,0,0,0-1.266.551,7.711,7.711,0,0,1-3.676,3.906,1.727,1.727,0,0,0-.83,1.825,7.542,7.542,0,0,1,.136,1.423c0,4.08-2.212,6.237-6.4,6.237h-.022a1.736,1.736,0,0,0-.271.021,2.951,2.951,0,0,1-1.919-3.561.976.976,0,1,0-1.887-.5,4.915,4.915,0,0,0,2.283,5.51A5.592,5.592,0,0,1,29.86,55.02a3.364,3.364,0,0,1-2.539-.866c-.9-.884-1.351-2.5-1.351-4.8V42.522h1.642a.976.976,0,0,0,.976-.976V36.859h4.688a.976.976,0,0,0,.976-.976V30.646a.976.976,0,0,0-.976-.976H28.587V24.982a.976.976,0,0,0-.976-.976H25.969V17.172c0-2.3.455-3.914,1.351-4.8a3.36,3.36,0,0,1,2.539-.866,5.545,5.545,0,0,1,5.155,3.261q.032.075.07.145a3.8,3.8,0,0,1-4.522,2.291.976.976,0,0,0-.506,1.886,5.767,5.767,0,0,0,1.5.2,5.77,5.77,0,0,0,5.268-3.466c4.061.065,6.206,2.218,6.206,6.235a7.545,7.545,0,0,1-.136,1.424,1.727,1.727,0,0,0,.83,1.823A7.716,7.716,0,0,1,47.4,29.2a.976.976,0,0,0,1.816-.716A9.572,9.572,0,0,0,44.839,23.7a9.51,9.51,0,0,0,.142-1.637c0-5.088-3.073-8.141-8.229-8.189a7.482,7.482,0,0,0-6.865-4.314,5.031,5.031,0,0,0-4.894,2.734A5.031,5.031,0,0,0,20.1,9.556a7.483,7.483,0,0,0-6.865,4.314C8.078,13.917,5,16.971,5,22.059A9.5,9.5,0,0,0,5.147,23.7C1.494,25.847,0,28.631,0,33.264s1.494,7.417,5.147,9.568A9.509,9.509,0,0,0,5,44.47c0,5.088,3.073,8.141,8.229,8.189A7.482,7.482,0,0,0,20.1,56.973h.11a5.015,5.015,0,0,0,4.784-2.735,5.015,5.015,0,0,0,4.784,2.735h.11a7.482,7.482,0,0,0,6.865-4.314c5.155-.047,8.229-3.1,8.229-8.189a9.5,9.5,0,0,0-.142-1.637,9.567,9.567,0,0,0,4.377-4.8.976.976,0,0,0-.551-1.266ZM27.611,31.623H32.3v3.284H27.611a.976.976,0,0,0-.976.976V40.57H23.351V35.882a.976.976,0,0,0-.976-.976H17.687V31.623h4.688a.976.976,0,0,0,.976-.976V25.959h3.284v4.688A.976.976,0,0,0,27.611,31.623ZM22.665,54.155a3.364,3.364,0,0,1-2.539.866,5.545,5.545,0,0,1-5.155-3.261q-.032-.075-.07-.145a3.8,3.8,0,0,1,4.522-2.291.976.976,0,1,0,.506-1.886A5.757,5.757,0,0,0,13.163,50.7C9.1,50.64,6.957,48.487,6.957,44.47a7.543,7.543,0,0,1,.136-1.424,1.726,1.726,0,0,0-.83-1.824c-3.142-1.809-4.31-3.966-4.31-7.958s1.168-6.15,4.31-7.958a1.727,1.727,0,0,0,.83-1.825,7.542,7.542,0,0,1-.136-1.423c0-4.08,2.212-6.237,6.4-6.237h.022a1.737,1.737,0,0,0,.271-.021,2.951,2.951,0,0,1,1.919,3.561.976.976,0,1,0,1.887.5,4.915,4.915,0,0,0-2.283-5.51,5.593,5.593,0,0,1,4.954-2.845,3.368,3.368,0,0,1,2.539.866c.9.884,1.351,2.5,1.351,4.8v6.834H22.375a.976.976,0,0,0-.976.976V29.67H16.711a.976.976,0,0,0-.976.976v5.236a.976.976,0,0,0,.976.976H21.4v4.688a.976.976,0,0,0,.976.976h1.642v6.834c0,2.3-.455,3.914-1.351,4.8Z" transform="translate(0 -9.555)"/><path class="a" d="M44.881,205.824a4.19,4.19,0,0,0-1.846.421,5.281,5.281,0,0,0-1.5-2.214.976.976,0,1,0-1.288,1.467,3.325,3.325,0,0,1,1.123,2.241,4.356,4.356,0,0,0-.315.594,4.3,4.3,0,0,0-.255.783,3.335,3.335,0,0,1-4.513-.175.976.976,0,0,0-1.381,1.381,5.294,5.294,0,0,0,6.021,1.021,4.171,4.171,0,0,0,.892,1.467q.087.094.178.185a.976.976,0,0,0,1.381-1.381q-.067-.067-.131-.136a2.134,2.134,0,0,1-.4-2.367,2.195,2.195,0,0,1,2.033-1.336.976.976,0,1,0,0-1.952Z" transform="translate(-31.242 -184.826)"/><path class="a" d="M364.777,211.616A.976.976,0,0,0,366.158,213q.091-.091.179-.185a4.17,4.17,0,0,0,.892-1.467,5.294,5.294,0,0,0,6.021-1.021.976.976,0,0,0-1.381-1.381,3.335,3.335,0,0,1-4.513.175,4.3,4.3,0,0,0-.255-.783,4.35,4.35,0,0,0-.315-.594,3.325,3.325,0,0,1,1.123-2.241.976.976,0,0,0-1.288-1.467,5.281,5.281,0,0,0-1.5,2.214,4.19,4.19,0,0,0-1.846-.421.976.976,0,1,0,0,1.953,2.195,2.195,0,0,1,2.033,1.336,2.134,2.134,0,0,1-.4,2.366Q364.844,211.548,364.777,211.616Z" transform="translate(-326.93 -184.827)"/></g></g></g></svg>