<svg xmlns="http://www.w3.org/2000/svg" width="29.086" height="46.159" viewBox="0 0 29.086 46.159"><defs><style>.a{fill:#fff;}</style></defs><g transform="translate(-94.685)"><path class="a" d="M119.523,4.271A14.449,14.449,0,0,0,109.263,0h-.035A14.542,14.542,0,0,0,98.939,24.82a7.385,7.385,0,0,1,2.206,5.239V38.12a8.047,8.047,0,0,0,8.038,8.038h.091a8.047,8.047,0,0,0,8.038-8.038V30.058a7.315,7.315,0,0,1,2.179-5.213,14.542,14.542,0,0,0,.032-20.575Zm-10.3,12.165a1.352,1.352,0,0,0-1.352,1.352v3.133a2.931,2.931,0,0,1-1.163-.594,3.326,3.326,0,0,1-.947-2.627c0-1.689,1.865-4.113,3.459-5.716,1.4,1.418,3.466,3.9,3.466,5.716a3.326,3.326,0,0,1-.947,2.627,2.932,2.932,0,0,1-1.163.594V17.789A1.352,1.352,0,0,0,109.228,16.436Zm5.379,17.617v2.715H103.849V34.053Zm-5.334,9.4h-.091a5.343,5.343,0,0,1-5.16-3.981h10.411A5.343,5.343,0,0,1,109.274,43.454Zm8.309-20.524a10,10,0,0,0-2.975,7.129v1.29H110.58V23.687c3-.5,4.815-2.7,4.815-5.986,0-3.905-4.741-8.127-5.282-8.6a1.352,1.352,0,0,0-1.771,0c-.541.469-5.282,4.69-5.282,8.6,0,3.291,1.811,5.49,4.815,5.986v7.661h-4.027v-1.29a10.072,10.072,0,0,0-3-7.151,11.845,11.845,0,0,1,8.376-20.2h.029a11.838,11.838,0,0,1,8.326,20.225Z" transform="translate(0 0)"/></g></svg>