<svg xmlns="http://www.w3.org/2000/svg" width="45.688" height="48.734" viewBox="0 0 45.688 48.734"><defs><style>.a{fill:#fff;}</style></defs><g transform="translate(-16)"><g transform="translate(16 8.566)"><g transform="translate(0)"><path class="a" d="M53.121,97.139a7.141,7.141,0,0,0-12.7-4.475,11.343,11.343,0,0,0-18.39,6.284,8.525,8.525,0,0,0-3.52,2.128,1.448,1.448,0,0,0-.1.112A8.56,8.56,0,0,0,24.566,115.7h2.855v13.04a1.428,1.428,0,1,0,2.855,0v-1.428h8.566v1.428a1.428,1.428,0,1,0,2.855,0V115.7h2.855a8.562,8.562,0,0,0,6.762-13.819A7.155,7.155,0,0,0,53.121,97.139ZM38.844,124.456H30.277V121.41h8.566Zm0-5.9H30.277V115.7h8.566Zm5.711-5.711H41.7v-1.428a1.428,1.428,0,1,0-2.855,0v1.428H30.277v-1.428a1.428,1.428,0,1,0-2.855,0v1.428H24.566a5.711,5.711,0,1,1,4.038-9.749,1.428,1.428,0,0,0,2.019-2.019A8.5,8.5,0,0,0,25.1,98.585a8.5,8.5,0,0,1,16.256.6,8.549,8.549,0,0,0-2.857,1.892,1.428,1.428,0,1,0,2.019,2.019,5.711,5.711,0,1,1,4.038,9.749Zm4.662-12.9a8.543,8.543,0,0,0-5.069-1.369A11.394,11.394,0,0,0,42.392,94.8a4.284,4.284,0,1,1,6.825,5.145Z" transform="translate(-16 -90)"/></g></g><g transform="translate(44.555)"><path class="a" d="M317.428,0A1.428,1.428,0,0,0,316,1.428V4.283a1.428,1.428,0,0,0,2.855,0V1.428A1.428,1.428,0,0,0,317.428,0Z" transform="translate(-316)"/></g><g transform="translate(55.977 14.277)"><path class="a" d="M440.283,150h-2.855a1.428,1.428,0,0,0,0,2.855h2.855a1.428,1.428,0,1,0,0-2.855Z" transform="translate(-436 -150)"/></g><g transform="translate(52.631 4.182)"><path class="a" d="M405.309,44.353a1.428,1.428,0,0,0-2.019,0l-2.019,2.019a1.428,1.428,0,1,0,2.019,2.019l2.019-2.019A1.428,1.428,0,0,0,405.309,44.353Z" transform="translate(-400.853 -43.935)"/></g></g></svg>