<svg xmlns="http://www.w3.org/2000/svg" width="29.514" height="25.12" viewBox="0 0 29.514 25.12"><defs><style>.a{fill:#80d96f;}</style></defs><g transform="translate(0 -38.113)"><path class="a" d="M22.164,38.113H7.35A7.358,7.358,0,0,0,0,45.463v2.594a.432.432,0,0,0,.432.432h6.41a1.3,1.3,0,0,1-.444.605l-1.729,1.3a3.041,3.041,0,0,0-1.211,2.421v8.259A2.164,2.164,0,0,0,5.62,63.233H23.894a2.164,2.164,0,0,0,2.162-2.162V52.812a3.041,3.041,0,0,0-1.211-2.421l-1.729-1.3a1.3,1.3,0,0,1-.444-.605h6.41a.432.432,0,0,0,.432-.432V45.463A7.358,7.358,0,0,0,22.164,38.113ZM7.35,38.978H22.164a6.493,6.493,0,0,1,6.47,6.053H22.6V44.6a2.166,2.166,0,0,0-1.729-2.118v-1.34a1.3,1.3,0,0,0-2.52-.432H11.166a1.3,1.3,0,0,0-2.52.432v1.34A2.165,2.165,0,0,0,6.917,44.6v.432H.879A6.493,6.493,0,0,1,7.35,38.978Zm3.891,2.594h7.033v.865H11.241ZM.865,45.895H6.917v1.729H.865Zm23.461,5.188a2.172,2.172,0,0,1,.865,1.729v3.936a1.3,1.3,0,0,1-1.3,1.3H7.35a.432.432,0,1,0,0,.865H23.894a2.15,2.15,0,0,0,1.3-.433v2.6a1.3,1.3,0,0,1-1.3,1.3H5.62a1.3,1.3,0,0,1-1.3-1.3v-2.6a2.15,2.15,0,0,0,1.3.433.432.432,0,1,0,0-.865,1.3,1.3,0,0,1-1.3-1.3V52.812a2.172,2.172,0,0,1,.865-1.729l1.729-1.3a2.172,2.172,0,0,0,.865-1.729V44.6a1.3,1.3,0,0,1,1.3-1.3.432.432,0,0,0,.432-.432V41.139a.432.432,0,1,1,.865,0v1.729a.432.432,0,0,0,.432.432h7.9a.432.432,0,0,0,.432-.432V41.139a.432.432,0,1,1,.865,0v1.729a.432.432,0,0,0,.432.432,1.3,1.3,0,0,1,1.3,1.3v3.459a2.172,2.172,0,0,0,.865,1.729ZM22.6,47.624V45.895h6.053v1.729Z"/><path class="a" d="M149.985,143.113a6.485,6.485,0,1,0,6.485,6.485A6.492,6.492,0,0,0,149.985,143.113Zm0,12.105a5.62,5.62,0,1,1,5.62-5.62A5.627,5.627,0,0,1,149.985,155.218Z" transform="translate(-135.228 -98.947)"/><path class="a" d="M206.526,203.113a3.026,3.026,0,1,0,3.026,3.026A3.03,3.03,0,0,0,206.526,203.113Zm0,5.188a2.162,2.162,0,1,1,2.162-2.162A2.164,2.164,0,0,1,206.526,208.3Z" transform="translate(-191.769 -155.489)"/><path class="a" d="M178.256,173.113a4.756,4.756,0,1,0,4.756,4.756A4.761,4.761,0,0,0,178.256,173.113Zm0,8.647a3.891,3.891,0,1,1,3.891-3.891A3.9,3.9,0,0,1,178.256,181.76Z" transform="translate(-163.499 -127.218)"/></g></svg>