<svg xmlns="http://www.w3.org/2000/svg" width="39.388" height="49.549" viewBox="0 0 39.388 49.549"><defs><style>.a{fill:#fff;}</style></defs><g transform="translate(-52.5 0)"><path class="a" d="M122.879,43.932h-4.067l0-5.977a.976.976,0,0,0-.5-.851l-3.683-2.07h0c-.179-.1-.383-.215-.6-.332-1.514-.825-3.911-2.132-4.807-4.421h8.2l4.214,4.151c.272.268.272.268.266.964,0,.107,0,.223,0,.349v1.528a.976.976,0,0,0,1.952,0V35.744c0-.12,0-.229,0-.331a2.685,2.685,0,0,0-.849-2.374L118.8,28.9l.006-3.253,2.5,0a2.872,2.872,0,0,0,2.877-1.292l.009-.013,3.257-4.635a3.171,3.171,0,0,0,.522-2.4,3.215,3.215,0,0,0-5.818-1.265l-2.055,3-1.724-.009-2.12-3.338a7.337,7.337,0,0,0,3.5-6.1,7.274,7.274,0,0,0-1.248-4.08,4.207,4.207,0,0,0,.749-.978,4.031,4.031,0,0,0-.205-4.023.976.976,0,0,0-1.3-.41,9.487,9.487,0,0,1-4.668,1.037l-.476,0-.459,0a7.347,7.347,0,0,0-2.512.339c-2.467.876-6.242,3.451-3.825,10.854v0l.005.016c.008.025.018.05.028.074h0a7.3,7.3,0,0,0,2.451,3.192l-1.336,1.93-5.728,1.963a3.232,3.232,0,0,0-2.173,2.928c0,.012,0,.023,0,.035v1.069h-5.58a.976.976,0,0,0,0,1.952h5.58v2.855a3.229,3.229,0,0,0,3.234,3.216h.014a3.224,3.224,0,0,0,3.2-3.239l-.014-3.461.552-.189.915,4.632-.76,3.95h-5.551a.976.976,0,0,0,0,1.952h5.175l-.181.94-5.247,1.757-.015.006-.013,0-3.366,1.242a.976.976,0,0,0-.577,1.254l2.892,7.822a.976.976,0,0,0,1.394.512,5.3,5.3,0,0,0,3-4.345l7.6-2.626a2.979,2.979,0,0,0,1.883-1.672l1.372-2.849,1.673.963a.98.98,0,0,0,.236.1l.374.21,0,6.379h0l-.011,3.666a.976.976,0,0,0,.976.979h8.6a.976.976,0,0,0,.934-.692,3.063,3.063,0,0,0-.533-2.8A5.71,5.71,0,0,0,122.879,43.932Zm-2.27-22.938a.977.977,0,0,0,.81-.424l2.348-3.428a1.263,1.263,0,0,1,1.754-.325,1.277,1.277,0,0,1,.532.832,1.231,1.231,0,0,1-.2.931L122.6,23.207c-.349.48-.353.48-1.3.482l-2.5,0,0-2.707Zm-2.8-11.4a5.446,5.446,0,0,1-7.647,4.849c-.028-.015-.057-.028-.085-.04a4.867,4.867,0,0,1-2.263-2.385c.435-1.018,1.889-3.959,4.235-4.139a14.2,14.2,0,0,0,4.861-1.252A5.326,5.326,0,0,1,117.807,9.6Zm-10.53-3.461a4.5,4.5,0,0,1,3.019-2.82,5.466,5.466,0,0,1,1.859-.226l.443,0,.492,0a11.655,11.655,0,0,0,4.586-.813,1.757,1.757,0,0,1-.129,1.321C116.8,4.965,114.1,5.767,111.9,5.934a6.618,6.618,0,0,0-4.816,3.311A6.813,6.813,0,0,1,107.277,6.134Zm-3.07,17.11a.976.976,0,0,0-.66.927l.016,4.162a1.271,1.271,0,0,1-1.259,1.279H102.3a1.291,1.291,0,0,1-1.283-1.264V24.619a.964.964,0,0,0,0-.2V22.492a1.287,1.287,0,0,1,.854-1.136l5.885-2.017a1.237,1.237,0,0,1,.4-.067,1.274,1.274,0,0,1,.415,2.477Zm5,.352a3.226,3.226,0,0,0,.137-6.05l.726-1.05a7.969,7.969,0,0,0,2.452.363,6.4,6.4,0,0,0,1.962-.322l2.381,3.749-.008,4.382h0l-.006,3.66h-8.083l-.848-4.292Zm-8.489,22.766L98.6,40.65l1.545-.57,1.579,4.124C101.9,44.653,101.6,45.556,100.716,46.362Zm10.734-7.106a1.069,1.069,0,0,1-.764.675l-7.51,2.595-1.184-3.093,4.822-1.614a.976.976,0,0,0,.649-.741l.853-4.43a13.349,13.349,0,0,0,4.563,3.645ZM118.8,47.6l.005-1.715h4.07a3.873,3.873,0,0,1,2.377,1.336,1.575,1.575,0,0,1,.213.379H118.8Z" transform="translate(-36.138)"/><path class="a" d="M129.815,345.308a.976.976,0,0,0,0-1.952h-.025a.976.976,0,0,0,0,1.952Z" transform="translate(-68.93 -310.127)"/><path class="a" d="M53.5,243.247h-.025a.976.976,0,0,0,0,1.952H53.5a.976.976,0,0,0,0-1.952Z" transform="translate(0 -219.706)"/><path class="a" d="M397.213,413.76a.976.976,0,0,0-.976.976v.025a.976.976,0,1,0,1.952,0v-.025A.976.976,0,0,0,397.213,413.76Z" transform="translate(-310.471 -373.717)"/></g></svg>